<svg xmlns="http://www.w3.org/2000/svg" width="1440" height="900" viewBox="0 0 1440 900" class="jss6">
	<g fill="none" fill-rule="evenodd" opacity=".04">
		<g fill-rule="nonzero" stroke="#0A0350" stroke-width="1.608">
			<g>
				<path d="M126.754 523.337l13.653-27.315c5.743-11.49 10.663-23.372 14.724-35.558l19.255-57.786c11.68-35.049 10.393-73.126-3.625-107.307l-9.873-24.073c-7.829-19.088-11.856-39.522-11.856-60.153 0-20.4 5.864-40.37 16.892-57.53l19.775-30.772c22.853-35.56 62.22-57.056 104.49-57.056h44.93c29.654 0 59.108-4.858 87.19-14.38l91.162-30.913c17.739-6.015 36.052-10.178 54.648-12.423l56.874-6.866c46.33-5.593 92.884 8.467 128.371 38.77 35.418 30.245 82.075 43.906 128.212 37.54l21.182-2.922c41.957-5.79 81.964-21.371 116.784-45.485 32.447-22.47 74.82-24.632 109.385-5.58l27.706 15.271c32.302 17.805 60.638 42.005 83.278 71.124l34.59 44.487c29.58 38.043 48.501 83.272 54.822 131.045l2.57 19.425c7.846 59.3-7.425 119.345-42.649 167.69l-3.524 4.838c-37.188 51.042-51.088 115.416-38.272 177.254l12.362 59.648c8.614 41.56 36.34 76.615 74.8 94.568 39.328 18.359 70.418 50.694 87.22 90.712l2.41 5.74c18.42 43.871 20.772 92.835 6.642 138.27l-20.76 66.748c-21.393 68.787-69.245 126.252-133.022 159.745l-74.394 39.07c-28.627 15.033-59.708 24.833-91.78 28.936l-109.536 14.015c-49.332 6.312-95.82 26.64-133.95 58.572-37.723 31.593-85.36 48.906-134.566 48.906H605.858c-76.45 0-149.36-32.232-200.813-88.777l-71.368-78.43c-26.8-29.45-46.793-64.435-58.564-102.475l-22.508-72.742c-18.305-59.16-70.433-101.478-132.092-107.234C61.25 1004.4 14.087 957.892 7.726 898.714l-6.174-57.436C-4.96 780.69 9.098 719.673 41.466 668.043l46.145-73.607c2.921-4.66 5.7-9.407 8.333-14.236l26.323-48.274c1.547-2.836 3.042-5.7 4.487-8.589z" transform="translate(0 -218)">
				</path>
				<path d="M184.803 546.373l12.287-24.572c5.171-10.343 9.602-21.039 13.259-32.009l17.33-51.99c10.514-31.539 9.356-65.804-3.263-96.56l-8.887-21.663c-7.047-17.176-10.672-35.562-10.672-54.127 0-18.356 5.278-36.325 15.204-51.766l17.803-27.691c20.57-31.999 56.001-51.342 94.042-51.342h40.481c26.68 0 53.179-4.369 78.446-12.934l82.09-27.826c15.96-5.41 32.437-9.154 49.168-11.173l51.219-6.182c41.698-5.032 83.6 7.62 115.545 34.89 31.882 27.215 73.876 39.507 115.402 33.78l19.083-2.632c37.765-5.209 73.774-19.23 105.118-40.928 29.21-20.221 67.348-22.166 98.463-5.022l24.948 13.746c29.073 16.02 54.578 37.794 74.958 63.996l31.125 40.016c26.634 34.242 43.672 74.957 49.364 117.963l2.31 17.451c7.062 53.36-6.683 107.39-38.386 150.886l-3.178 4.361c-33.475 45.928-45.986 103.862-34.449 159.51l11.123 53.647c7.755 37.408 32.716 68.958 67.335 85.113 35.401 16.52 63.39 45.621 78.519 81.64l2.163 5.151c16.581 39.477 18.698 83.538 5.978 124.422l-18.68 60.041c-19.262 61.91-62.338 113.626-119.745 143.763l-66.986 35.166c-25.758 13.523-53.724 22.337-82.581 26.028l-98.63 12.615c-44.401 5.679-86.244 23.97-120.567 52.704-33.958 28.43-76.834 44.007-121.121 44.007H616.03c-68.791 0-134.396-28.995-180.703-79.866l-64.252-70.584c-24.129-26.506-42.13-57.996-52.73-92.237l-20.246-65.41c-16.484-53.253-63.41-91.342-118.914-96.522-53.345-4.98-95.802-46.843-101.53-100.113l-5.55-51.608c-5.865-54.546 6.795-109.478 35.943-155.955l41.519-66.203c2.63-4.194 5.133-8.468 7.503-12.814l23.694-43.436c1.392-2.553 2.739-5.13 4.04-7.731z" transform="translate(0 -218)">
				</path>
				<path d="M264.628 571.366l10.48-20.96c4.408-8.817 8.185-17.935 11.302-27.287l14.78-44.342c8.965-26.895 7.978-56.115-2.783-82.344l-7.578-18.474c-6.01-14.647-9.1-30.327-9.1-46.159 0-15.653 4.5-30.977 12.965-44.145l15.18-23.614c17.542-27.288 47.755-43.783 80.195-43.783h34.524c22.745 0 45.337-3.726 66.879-11.028l70.012-23.733c13.606-4.613 27.654-7.805 41.918-9.527l43.678-5.272c35.558-4.291 71.29 6.498 98.53 29.753 27.187 23.209 62.997 33.692 98.408 28.807l16.27-2.244c32.204-4.442 62.91-16.398 89.639-34.903 24.907-17.244 57.43-18.902 83.962-4.282l21.284 11.728c24.784 13.657 46.526 32.22 63.9 54.558l26.561 34.152c22.704 29.19 37.227 63.898 42.08 100.56l1.972 14.903c6.022 45.503-5.7 91.58-32.733 128.674l-2.71 3.718c-28.545 39.166-39.214 88.57-29.375 136.026l9.485 45.753c6.613 31.899 27.897 58.803 57.417 72.58 30.189 14.088 54.055 38.904 66.955 69.619l1.846 4.395c14.139 33.665 15.944 71.24 5.097 106.104l-15.938 51.23c-16.419 52.778-53.14 96.867-102.078 122.56l-57.15 30.004c-21.96 11.53-45.803 19.045-70.404 22.191l-84.111 10.759c-37.864 4.843-73.544 20.441-102.813 44.946-28.957 24.243-65.519 37.528-103.285 37.528h-97.563c-58.647 0-114.577-24.72-154.054-68.091l-54.816-60.222c-20.568-22.597-35.913-49.441-44.948-78.63l-17.271-55.801c-14.055-45.41-54.07-77.891-101.4-82.309-45.489-4.245-81.692-39.944-86.577-85.37l-4.735-44.042c-5-46.498 5.791-93.325 30.637-132.945l35.42-56.482c2.242-3.575 4.375-7.218 6.396-10.923l20.206-37.045c1.187-2.176 2.335-4.373 3.444-6.59z" transform="translate(0 -218)">
				</path>
				<path d="M326.769 594.223l9.045-18.081c3.81-7.616 7.073-15.493 9.767-23.571l12.76-38.264c7.741-23.215 6.889-48.438-2.403-71.077l-6.545-15.947c-5.189-12.642-7.858-26.176-7.858-39.841 0-13.512 3.886-26.738 11.195-38.102l13.11-20.385c15.148-23.555 41.232-37.792 69.237-37.792h29.836c19.636 0 39.14-3.215 57.737-9.516l60.469-20.49c11.747-3.98 23.874-6.735 36.188-8.22l37.732-4.552c30.702-3.704 61.552 5.609 85.076 25.682 23.478 20.033 54.397 29.082 84.97 24.866l14.065-1.939c27.806-3.834 54.32-14.153 77.4-30.126 21.51-14.885 49.591-16.317 72.504-3.697l18.376 10.121c21.406 11.79 40.185 27.818 55.192 47.105l22.909 29.442c19.619 25.213 32.17 55.196 36.363 86.866l1.698 12.823c5.2 39.276-4.92 79.046-28.26 111.059l-2.346 3.216c-24.649 33.806-33.862 76.455-25.365 117.421l8.186 39.469c5.712 27.542 24.094 50.771 49.585 62.663 26.07 12.16 46.68 33.585 57.823 60.104l1.59 3.782c12.208 29.057 13.767 61.491 4.4 91.585l-13.749 44.177c-14.187 45.582-45.909 83.656-88.18 105.84l-49.338 25.891c-18.96 9.95-39.545 16.435-60.784 19.151l-72.65 9.289c-32.69 4.18-63.499 17.642-88.774 38.794-25.006 20.926-56.574 32.393-89.181 32.393h-84.274c-50.635 0-98.927-21.339-133.02-58.777l-47.317-51.96c-17.771-19.516-31.031-42.703-38.839-67.917l-14.897-48.11c-12.142-39.213-46.699-67.258-87.57-71.071-39.282-3.665-70.547-34.491-74.766-73.717l-4.08-37.928c-4.322-40.172 5.005-80.63 26.477-114.855l30.558-48.706c1.937-3.088 3.78-6.235 5.527-9.435l17.445-31.97c1.026-1.88 2.018-3.778 2.976-5.693z" transform="translate(0 -218)">
				</path>
				<path d="M357.84 604.048l8.322-16.61c3.513-7.011 6.524-14.265 9.008-21.704l11.746-35.165c7.13-21.345 6.344-44.543-2.213-65.358l-6.03-14.668c-4.777-11.621-7.234-24.065-7.234-36.63 0-12.423 3.577-24.584 10.305-35.028l12.079-18.752c13.953-21.66 37.954-34.75 63.72-34.75h27.596c18.038 0 35.954-2.948 53.041-8.728l55.793-18.875c10.793-3.651 21.935-6.179 33.248-7.541l34.822-4.194c28.26-3.404 56.657 5.159 78.325 23.618 21.625 18.423 50.085 26.743 78.228 22.87l13-1.79c25.598-3.524 50.009-13.012 71.267-27.699 19.815-13.69 45.665-15.008 66.77-3.402l16.957 9.325c19.696 10.83 36.979 25.56 50.796 43.289l21.077 27.043c18.086 23.208 29.66 50.817 33.528 79.985l1.554 11.718c4.79 36.111-4.527 72.678-26.01 102.096l-2.178 2.982c-22.698 31.08-31.182 70.316-23.354 107.999l7.522 36.212c5.268 25.356 22.202 46.736 45.678 57.67 24.01 11.181 42.998 30.896 53.272 55.307l1.446 3.437c11.243 26.715 12.679 56.546 4.052 84.218l-12.648 40.572c-13.074 41.94-42.286 76.963-81.2 97.352l-45.52 23.85c-17.427 9.13-36.342 15.08-55.858 17.572l-67.008 8.553c-30.09 3.841-58.452 16.218-81.73 35.668-23.032 19.244-52.092 29.786-82.105 29.786h-77.803c-46.539 0-90.927-19.593-122.29-53.977l-43.625-47.83c-16.378-17.956-28.6-39.298-35.799-62.51l-13.68-44.11c-11.2-36.11-43.034-61.93-80.679-65.436-36.178-3.37-64.976-31.755-68.869-67.88l-3.735-34.667c-3.987-37.008 4.616-74.28 24.42-105.796l28.095-44.708c1.786-2.842 3.485-5.738 5.095-8.684l16.063-29.39c.946-1.73 1.86-3.477 2.744-5.24z" transform="translate(0 -218)">
				</path>
				<path d="M394.945 616.72l7.486-14.915c3.17-6.317 5.887-12.851 8.13-19.554l10.573-31.598c6.422-19.194 5.715-40.058-1.992-58.773l-5.433-13.193c-4.303-10.447-6.516-21.636-6.516-32.934 0-11.17 3.221-22.104 9.278-31.49l10.886-16.87c12.57-19.479 34.169-31.247 57.352-31.247h24.969c16.207 0 32.305-2.644 47.66-7.83l50.348-17.002c9.7-3.276 19.713-5.543 29.879-6.765l31.434-3.78c25.442-3.058 51.006 4.64 70.527 21.242 19.483 16.568 45.103 24.05 70.44 20.568l11.758-1.616c23.046-3.167 45.028-11.697 64.178-24.904 17.854-12.314 41.129-13.499 60.141-3.062l15.301 8.399c17.729 9.732 33.29 22.971 45.736 38.912l18.95 24.273c16.316 20.898 26.76 45.772 30.25 72.054l1.39 10.453c4.313 32.467-4.074 65.346-23.413 91.78l-1.98 2.706c-20.443 27.944-28.086 63.244-21.031 97.142l6.76 32.483c4.751 22.831 20.01 42.076 41.157 51.907 21.627 10.054 38.74 27.797 48.005 49.773l1.285 3.05c10.127 24.02 11.42 50.85 3.649 75.733l-11.373 36.417c-11.79 37.752-38.108 69.266-73.154 87.595l-41.062 21.476c-15.667 8.194-32.669 13.534-50.208 15.769l-60.453 7.703c-27.087 3.451-52.623 14.579-73.594 32.069-20.748 17.305-46.91 26.783-73.929 26.783h-70.253c-41.84 0-81.75-17.595-109.972-48.482l-39.326-43.04c-14.767-16.16-25.79-35.378-32.286-56.283l-12.28-39.526c-10.106-32.525-38.79-55.774-72.702-58.928-32.59-3.03-58.536-28.594-62.048-61.135l-3.34-30.949c-3.601-33.357 4.164-66.952 22.038-95.345l25.25-40.11c1.61-2.56 3.143-5.167 4.595-7.819l14.465-26.418c.853-1.559 1.679-3.132 2.475-4.72z" transform="translate(0 -218)">
				</path>
				<path d="M451.258 636.07l6.203-12.383c2.618-5.225 4.86-10.63 6.712-16.174l8.755-26.212c5.314-15.91 4.728-33.201-1.649-48.716l-4.494-10.932c-3.56-8.662-5.392-17.937-5.392-27.303 0-9.26 2.666-18.324 7.68-26.108l9.003-13.977c10.4-16.145 28.288-25.901 47.492-25.901h20.568c13.443 0 26.795-2.198 39.529-6.506l41.585-14.069c8.044-2.721 16.347-4.605 24.778-5.62l25.954-3.127c21.063-2.537 42.228 3.846 58.377 17.605 16.117 13.731 37.329 19.933 58.305 17.045l9.688-1.334c19.078-2.626 37.272-9.698 53.115-20.645 14.769-10.204 34.036-11.186 49.765-2.536l12.642 6.952c14.677 8.072 27.556 19.049 37.852 32.26l15.716 20.168c13.477 17.293 22.101 37.867 24.983 59.602l1.16 8.743c3.57 26.916-3.374 54.171-19.386 76.098l-1.623 2.222c-16.917 23.167-23.24 52.41-17.407 80.497l5.608 26.994c3.925 18.899 16.546 34.833 34.044 42.983 17.894 8.334 32.046 23.028 39.703 41.223l1.078 2.562c8.38 19.913 9.45 42.147 3.02 62.773l-9.43 30.251c-9.742 31.254-31.51 57.353-60.508 72.548l-33.936 17.781c-12.987 6.805-27.083 11.24-41.627 13.097l-49.943 6.375c-22.427 2.863-43.566 12.089-60.916 26.586-17.165 14.343-38.824 22.2-61.193 22.2h-57.992c-34.682 0-67.762-14.6-91.133-40.226l-32.524-35.66c-12.203-13.381-21.31-29.285-26.675-46.582l-10.2-32.886c-8.346-26.914-32.072-46.158-60.128-48.771-26.964-2.512-48.428-23.668-51.329-50.593l-2.785-25.853c-2.971-27.577 3.44-55.35 18.196-78.835l20.945-33.334c1.33-2.118 2.597-4.276 3.796-6.47l11.973-21.908c.705-1.29 1.387-2.591 2.045-3.905z" transform="translate(0 -218)">
				</path>
				<path d="M499.807 651.897l5.076-10.113c2.153-4.289 3.998-8.726 5.521-13.277l7.173-21.432c4.358-13.023 3.878-27.179-1.352-39.876l-3.687-8.951c-2.92-7.088-4.421-14.68-4.421-22.345 0-7.578 2.186-14.996 6.295-21.364l7.387-11.446c8.53-13.216 23.185-21.2 38.915-21.2h16.94c11.001 0 21.93-1.795 32.354-5.315l34.153-11.531c6.586-2.224 13.383-3.763 20.284-4.592l21.328-2.564c17.263-2.075 34.61 3.148 47.855 14.412 13.221 11.24 30.605 16.316 47.797 13.954l7.982-1.096c15.638-2.149 30.553-7.936 43.548-16.897 12.116-8.354 27.908-9.158 40.81-2.077l10.373 5.693c12.037 6.606 22.602 15.594 31.053 26.417l12.838 16.44c11.08 14.19 18.172 31.08 20.543 48.926l.94 7.07c2.927 22.027-2.764 44.334-15.886 62.268l-1.344 1.837c-13.873 18.959-19.059 42.91-14.272 65.91l4.586 22.033c3.225 15.492 13.58 28.55 27.93 35.22 14.675 6.822 26.287 18.86 32.575 33.772l.87 2.067c6.873 16.297 7.75 34.5 2.477 51.383L978.74 869.9c-8.006 25.633-25.877 47.029-49.673 59.473l-27.832 14.554c-10.637 5.562-22.179 9.187-34.086 10.704l-41.015 5.225c-18.38 2.342-35.707 9.89-49.937 21.757-14.08 11.742-31.832 18.172-50.165 18.172H678.38c-28.404 0-55.499-11.944-74.66-32.911l-26.659-29.171c-10.027-10.973-17.513-24.021-21.924-38.216l-8.326-26.795c-6.859-22.07-26.323-37.846-49.335-39.985-22.115-2.056-39.721-19.403-42.105-41.485l-2.263-20.961c-2.445-22.65 2.829-45.464 14.967-64.743l17.117-27.187c1.094-1.738 2.135-3.508 3.12-5.309l9.815-17.92c.58-1.059 1.14-2.127 1.68-3.205z" transform="translate(0 -218)">
				</path>
				<path d="M542.526 666.576l4.104-8.191c1.734-3.461 3.22-7.042 4.446-10.713l5.793-17.347c3.517-10.532 3.13-21.977-1.092-32.246l-2.974-7.236c-2.357-5.734-3.57-11.874-3.57-18.073 0-6.129 1.766-12.129 5.085-17.282l5.958-9.251c6.883-10.687 18.724-17.145 31.435-17.145h13.6c8.905 0 17.75-1.455 26.186-4.31l27.506-9.306c5.329-1.803 10.83-3.05 16.414-3.724l17.17-2.068c13.942-1.68 27.95 2.545 38.639 11.653 10.667 9.089 24.707 13.194 38.59 11.282l6.412-.882c12.627-1.739 24.67-6.42 35.156-13.666 9.775-6.754 22.527-7.404 32.938-1.679l8.355 4.596c9.722 5.347 18.253 12.618 25.073 21.37l10.385 13.327c8.926 11.455 14.638 25.082 16.547 39.479l.765 5.772c2.363 17.816-2.233 35.858-12.831 50.372l-1.074 1.47c-11.197 15.335-15.382 34.691-11.52 53.282l3.71 17.87c2.599 12.508 10.952 23.055 22.533 28.45 11.844 5.516 21.21 15.243 26.278 27.285l.714 1.697c5.547 13.181 6.255 27.898 2 41.55l-6.235 20.002c-6.453 20.703-20.871 37.99-40.079 48.056l-22.427 11.752c-8.603 4.508-17.94 7.446-27.575 8.676l-33.043 4.218c-14.844 1.896-28.835 8.002-40.319 17.598-11.361 9.494-25.697 14.695-40.503 14.695h-38.352c-22.974 0-44.887-9.673-60.368-26.648l-21.498-23.573c-8.083-8.864-14.115-19.398-17.668-30.855l-6.747-21.758c-5.524-17.814-21.228-30.551-39.798-32.281-17.846-1.663-32.052-15.665-33.972-33.486l-1.842-17.097c-1.967-18.265 2.278-36.661 12.052-52.217l13.852-22.047c.881-1.402 1.72-2.832 2.514-4.286l7.923-14.498c.467-.854.918-1.717 1.354-2.587z" transform="translate(0 -218)">
				</path>
				<path d="M583.305 682.1l3.17-6.303c1.336-2.659 2.482-5.41 3.428-8.231l4.47-13.337c2.715-8.096 2.416-16.9-.841-24.793l-2.297-5.567c-1.818-4.405-2.753-9.125-2.753-13.89 0-4.712 1.36-9.324 3.919-13.28l4.603-7.12c5.313-8.218 14.431-13.18 24.217-13.18h10.644c6.803 0 13.56-1.11 20.007-3.282l21.383-7.208c4.073-1.372 8.276-2.322 12.543-2.835l13.341-1.6c10.746-1.29 21.542 1.958 29.793 8.961 8.235 6.99 19.056 10.146 29.757 8.678l5.05-.692c9.695-1.33 18.945-4.913 27.006-10.463l.049-.033c7.547-5.196 17.378-5.696 25.414-1.293l6.525 3.574c7.456 4.085 14.002 9.645 19.24 16.342l8.069 10.316c6.877 8.792 11.28 19.262 12.753 30.327l.591 4.442c1.823 13.694-1.72 27.562-9.887 38.705l-.844 1.152c-8.639 11.786-11.869 26.685-8.886 40.99l2.85 13.667c2.01 9.645 8.461 17.771 17.398 21.918 9.14 4.241 16.375 11.732 20.295 21.014l.536 1.268c4.28 10.132 4.826 21.453 1.542 31.95l-4.83 15.434c-4.967 15.876-16.046 29.125-30.793 36.823l-17.515 9.143c-6.58 3.436-13.72 5.674-21.084 6.61l-25.634 3.26c-11.44 1.456-22.227 6.148-31.09 13.527-8.77 7.3-19.82 11.298-31.23 11.298h-29.879c-17.572 0-34.337-7.382-46.202-20.343l-16.748-18.296c-6.222-6.796-10.867-14.88-13.606-23.678l-5.188-16.667c-4.278-13.744-16.404-23.565-30.737-24.895-13.773-1.279-24.74-12.08-26.227-25.832l-1.41-13.045c-1.52-14.048 1.755-28.197 9.293-40.149l10.698-16.962c.678-1.076 1.324-2.173 1.936-3.289l6.117-11.15c.36-.656.708-1.319 1.044-1.987z" transform="translate(0 -218)">
				</path>
				<path d="M627.762 696.594l2.114-4.218c.898-1.792 1.667-3.645 2.302-5.545l2.988-8.945c1.816-5.436 1.616-11.343-.563-16.644l-1.536-3.735c-1.217-2.959-1.843-6.127-1.843-9.327 0-3.164.911-6.26 2.625-8.92l3.076-4.775c3.554-5.515 9.666-8.848 16.228-8.848h7.01c4.607 0 9.183-.753 13.547-2.23l14.18-4.795c2.757-.933 5.603-1.578 8.492-1.926l8.858-1.067c7.197-.867 14.429 1.314 19.948 6.015 5.507 4.69 12.755 6.81 19.923 5.823l3.312-.456c6.52-.897 12.736-3.313 18.15-7.053 5.048-3.486 11.631-3.822 17.006-.866l4.297 2.362c5.03 2.766 9.446 6.528 12.976 11.056l5.329 6.837c4.621 5.928 7.579 12.982 8.567 20.434l.39 2.946c1.22 9.195-1.152 18.507-6.623 25.997l-.555.76c-5.781 7.915-7.942 17.906-5.948 27.502l1.915 9.219c1.342 6.458 5.655 11.902 11.634 14.687 6.115 2.847 10.952 7.868 13.569 14.085l.367.873c2.864 6.803 3.23 14.4 1.032 21.446l-3.204 10.278c-3.341 10.714-10.804 19.66-20.745 24.868l-11.527 6.038c-4.452 2.332-9.283 3.851-14.267 4.488l-17.046 2.175c-7.664.978-14.887 4.13-20.816 9.082-5.866 4.9-13.266 7.585-20.91 7.585H702.25c-11.887 0-23.224-5.004-31.236-13.785l-11.054-12.117c-4.184-4.587-7.307-10.039-9.147-15.969l-3.474-11.2c-2.853-9.197-10.961-15.773-20.549-16.666-9.214-.858-16.55-8.087-17.54-17.288l-.946-8.777c-1.02-9.455 1.179-18.977 6.24-27.028l7.127-11.34c.457-.727.89-1.467 1.302-2.219l4.088-7.478c.242-.442.475-.889.701-1.339z" transform="translate(0 -218)">
				</path>
			</g>
		</g>
	</g>
</svg>
